<?xml version="1.0" encoding="UTF-8" standalone="no"?>
<svg width="16px" height="17px" viewBox="0 0 16 17" version="1.1" xmlns="http://www.w3.org/2000/svg" xmlns:xlink="http://www.w3.org/1999/xlink">
    <!-- Generator: Sketch 3.8.3 (29802) - http://www.bohemiancoding.com/sketch -->
    <title>003-cancel</title>
    <desc>Created with Sketch.</desc>
    <defs></defs>
    <g id="Page-1" stroke="none" stroke-width="1" fill="none" fill-rule="evenodd">
        <g id="Busqueda-Baazup-con-Numeracion" transform="translate(-51.000000, -267.000000)" fill="#242F3A">
            <g id="Group-3" transform="translate(36.000000, 123.000000)">
                <g id="Group-Copy-2" transform="translate(0.000000, 128.000000)">
                    <g id="Group-2">
                        <g id="003-cancel" transform="translate(22.692388, 24.692388) rotate(45.000000) translate(-22.692388, -24.692388) translate(16.692388, 18.692388)">
                            <path d="M7.69090909,6.16363636 C7.58181818,6.05454545 7.58181818,5.89090909 7.69090909,5.78181818 L11.7818182,1.69090909 C11.8909091,1.58181818 11.9454545,1.41818182 11.9454545,1.30909091 C11.9454545,1.2 11.8909091,1.03636364 11.7818182,0.927272727 L11.0181818,0.163636364 C10.9090909,0.0545454545 10.7454545,-4.97379915e-14 10.6363636,-4.97379915e-14 C10.4727273,-4.97379915e-14 10.3636364,0.0545454545 10.2545455,0.163636364 L6.16363636,4.25454545 C6.05454545,4.36363636 5.89090909,4.36363636 5.78181818,4.25454545 L1.69090909,0.163636364 C1.58181818,0.0545454545 1.41818182,-4.97379915e-14 1.30909091,-4.97379915e-14 C1.2,-4.97379915e-14 1.03636364,0.0545454545 0.927272727,0.163636364 L0.163636364,0.927272727 C0.0545454545,1.03636364 -4.97379915e-14,1.2 -4.97379915e-14,1.30909091 C-4.97379915e-14,1.41818182 0.0545454545,1.58181818 0.163636364,1.69090909 L4.25454545,5.78181818 C4.36363636,5.89090909 4.36363636,6.05454545 4.25454545,6.16363636 L0.163636364,10.2545455 C0.0545454545,10.3636364 -4.97379915e-14,10.5272727 -4.97379915e-14,10.6363636 C-4.97379915e-14,10.7454545 0.0545454545,10.9090909 0.163636364,11.0181818 L0.927272727,11.7818182 C1.03636364,11.8909091 1.2,11.9454545 1.30909091,11.9454545 C1.41818182,11.9454545 1.58181818,11.8909091 1.69090909,11.7818182 L5.78181818,7.69090909 C5.89090909,7.58181818 6.05454545,7.58181818 6.16363636,7.69090909 L10.2545455,11.7818182 C10.3636364,11.8909091 10.5272727,11.9454545 10.6363636,11.9454545 C10.7454545,11.9454545 10.9090909,11.8909091 11.0181818,11.7818182 L11.7818182,11.0181818 C11.8909091,10.9090909 11.9454545,10.7454545 11.9454545,10.6363636 C11.9454545,10.5272727 11.8909091,10.3636364 11.7818182,10.2545455 L7.69090909,6.16363636 L7.69090909,6.16363636 Z" id="Shape"></path>
                        </g>
                    </g>
                </g>
            </g>
        </g>
    </g>
</svg>