<?xml version="1.0" encoding="UTF-8" standalone="no"?>
<svg width="17px" height="13px" viewBox="0 0 17 13" version="1.1" xmlns="http://www.w3.org/2000/svg" xmlns:xlink="http://www.w3.org/1999/xlink">
    <!-- Generator: Sketch 3.8.3 (29802) - http://www.bohemiancoding.com/sketch -->
    <title>006-checked</title>
    <desc>Created with Sketch.</desc>
    <defs></defs>
    <g id="Page-1" stroke="none" stroke-width="1" fill="none" fill-rule="evenodd">
        <g id="Busqueda-Baazup-con-Numeracion" transform="translate(-50.000000, -141.000000)" fill="#FDFEFF">
            <g id="006-checked" transform="translate(50.000000, 141.000000)">
                <path d="M0.195,7.15 C0.065,7.02 0,6.825 0,6.695 C0,6.565 0.065,6.37 0.195,6.24 L1.105,5.33 C1.365,5.07 1.755,5.07 2.015,5.33 L2.08,5.395 L5.655,9.23 C5.785,9.36 5.98,9.36 6.11,9.23 L14.82,0.195 L14.885,0.195 L14.885,0.195 C15.145,-0.065 15.535,-0.065 15.795,0.195 L16.705,1.105 C16.965,1.365 16.965,1.755 16.705,2.015 L16.705,2.015 L6.305,12.805 C6.175,12.935 6.045,13 5.85,13 C5.655,13 5.525,12.935 5.395,12.805 L0.325,7.345 L0.195,7.15 L0.195,7.15 Z" id="Shape"></path>
            </g>
        </g>
    </g>
</svg>