<svg style="display:none;">
  <symbol id="flag-zambia" viewBox="0 0 29 19" xmlns="http://www.w3.org/2000/svg">
    <g>
        <path d="M28.4531786,0.0156636905 L0.499202381,0.0156636905 C0.223532738,0.0156636905 0,0.239139881 0,0.514809524 L0,18.485247 C0,18.7609167 0.223532738,18.9844494 0.499202381,18.9844494 L28.4532351,18.9844494 C28.7289048,18.9844494 28.9524375,18.7609167 28.9524375,18.485247 L28.9524375,0.514809524 C28.952381,0.239139881 28.7288482,0.0156636905 28.4531786,0.0156636905 L28.4531786,0.0156636905 Z" fill="#73AF00"></path>
        <rect fill="#FF4B55" x="18.4695833" y="6.50472917" width="3.49424702" height="12.479494"></rect>
        <rect fill="#464655" x="21.9636607" y="6.50472917" width="3.49424702" height="12.479494"></rect>
        <rect fill="#FF9B55" x="25.4583036" y="6.50472917" width="3.49424702" height="12.479494"></rect>
        <path d="M28.1014524,2.31047917 C28.1123095,2.28859524 28.1071071,2.26213095 28.0887857,2.24595833 C28.0703512,2.22972917 28.0434345,2.22803274 28.0231339,2.24149107 C27.9221964,2.3085 27.8204107,2.36940179 27.7194732,2.42464881 C28.0443958,2.15610417 28.0899167,1.92290179 28.0928571,1.9059375 C28.0965327,1.88461905 28.0870327,1.86313095 28.068881,1.8514256 C28.0506161,1.83960714 28.0272054,1.83994643 28.0092798,1.85210417 C27.6582887,2.09016964 27.3070149,2.26009524 27.0041458,2.37969345 C27.4108929,2.12268452 27.5721101,1.86047321 27.5819494,1.84390476 C27.5946726,1.82264286 27.5912232,1.79544345 27.5736935,1.77797024 C27.5561637,1.76044048 27.5289643,1.75721726 27.5077024,1.76994048 C27.1829494,1.96570833 26.7983125,2.12002679 26.4306964,2.23894643 C26.479497,2.163625 26.5142738,2.07902976 26.4830595,2.03147321 C26.4540506,1.98742262 26.401122,1.98742262 26.3255179,2.03164286 C26.1725,2.12132738 25.0129911,2.41690179 24.5636637,2.527 C24.1057411,2.44427083 23.7263065,2.56160714 23.6080655,2.60497917 C23.5765685,2.5674881 23.5622054,2.53118452 23.5561548,2.50279762 C23.5463155,2.45659821 23.553497,2.40966369 23.5753244,2.37714881 C23.6109494,2.32416369 23.6845744,2.3190744 23.7495476,2.31460714 C23.7778214,2.31268452 23.8030417,2.31093155 23.8250952,2.30538988 C23.8392321,2.3095744 23.8565357,2.31771726 23.856253,2.3240506 C23.8549524,2.34870536 23.870503,2.37098512 23.8940268,2.37839286 C23.9176071,2.38574405 23.942997,2.37635714 23.9560595,2.35537798 C23.9593393,2.3500625 24.0357351,2.22503571 23.9765863,2.11855655 C23.9335536,2.04114286 23.8347649,2.00042857 23.682878,1.9974881 C23.6205625,1.95400298 23.3850417,1.81240774 23.0948393,1.92182738 C22.8009048,2.03271726 22.6704494,2.33456845 22.6273036,2.46213988 C22.3985685,2.43036012 21.3483661,2.27010417 20.7774048,1.93494643 C20.7496399,1.92233631 20.6549226,1.88512798 20.601994,1.93556845 C20.5694792,1.9663869 20.5656905,2.01422619 20.5905714,2.07784226 C20.6038036,2.11154464 20.6241042,2.14445536 20.6510208,2.1768006 C20.345381,2.03650595 19.933375,1.84056845 19.6219673,1.66634524 C19.5732232,1.64378274 19.4848393,1.61313393 19.4392054,1.66091667 C19.4106488,1.691 19.4110446,1.73465476 19.440506,1.7908631 C19.4467262,1.8027381 19.4528899,1.81597024 19.4595625,1.83050298 C19.489872,1.89581548 19.5312083,1.98487798 19.6322024,2.08768155 C19.5567113,2.04645833 19.4886845,2.00404762 19.4341726,1.9616369 C19.1608214,1.74896131 19.1237827,1.72815179 19.0748125,1.7611756 C19.032628,1.7895625 19.046256,1.83757143 19.0606756,1.88840774 L19.0644643,1.90180952 C19.0763393,1.9440506 19.0957351,2.01213393 19.1488333,2.09424107 C19.1064792,2.06540179 19.0700625,2.05952083 19.0413929,2.07953869 C19.0243155,2.09135714 18.9985863,2.1207619 19.018378,2.18556548 C19.0659345,2.3405625 19.3944196,2.74866667 20.0193839,2.86883036 C19.9565595,2.87799107 19.8904554,2.88477679 19.8267262,2.88607738 C19.8025238,2.88658631 19.7815446,2.90315476 19.775494,2.92662202 C19.7695,2.95008929 19.7798482,2.9748006 19.8008839,2.98684524 C19.8123065,2.99340476 20.0331815,3.11701786 20.4381756,3.1066131 C20.3776131,3.12188095 20.3089077,3.13364286 20.2329077,3.13816667 C20.2092708,3.13958036 20.1893095,3.15620536 20.1836548,3.17916369 C20.178,3.20212202 20.1879524,3.22609821 20.2081964,3.2383125 C20.2202411,3.24560714 20.455253,3.38380952 20.8191369,3.36339583 L20.7874137,3.38290476 C20.7691488,3.39415774 20.759253,3.41502381 20.7621935,3.43622917 C20.7651339,3.45743452 20.7802887,3.47496429 20.800872,3.48084524 C20.8122381,3.48406845 21.0173363,3.54118155 21.2728185,3.51415179 L21.2279196,3.54610119 C21.209881,3.5589375 21.2014554,3.5815 21.2067708,3.60293155 C21.2120863,3.62441964 21.2298423,3.64053571 21.2517827,3.64358929 C21.2564196,3.64426786 21.2894435,3.64850893 21.342372,3.64850893 C21.3772619,3.64850893 21.4208036,3.64658631 21.4704524,3.64053571 C21.4693214,3.65342857 21.4708482,3.66626488 21.4750893,3.67904464 C21.5006488,3.75600595 21.6139702,3.77461012 21.6516875,3.77511905 C21.654006,3.7751756 21.6562679,3.7751756 21.6585298,3.7751756 C21.7041637,3.7751756 21.7523988,3.76872917 21.8015387,3.75894643 C21.8803095,3.83251488 22.0241101,3.82578571 22.1636131,3.79332738 C22.1553571,3.80588095 22.1490804,3.81843452 22.145122,3.83081845 C22.1370923,3.85632143 22.1431994,3.88233333 22.1614643,3.90054167 C22.1792202,3.91812798 22.2220268,3.96070833 22.6119792,3.85100595 C22.6103393,3.85225 22.608756,3.85349405 22.6071161,3.8547381 C22.5552619,3.8948869 22.5585417,3.93633631 22.5651577,3.95748512 C22.5890774,4.03416369 22.7610952,4.08330357 23.0732381,4.10422619 C23.0801369,4.27782738 23.0319583,4.46635714 23.0313929,4.4684494 C23.0259643,4.48920238 23.033372,4.51125595 23.0502798,4.52454464 C23.067131,4.53772024 23.0902589,4.53975595 23.1092589,4.52963393 C23.1272976,4.51990774 23.1452798,4.50735417 23.162244,4.49383929 L23.1607738,4.55123512 C23.1602083,4.57210119 23.1716875,4.59138393 23.1902351,4.60077083 C23.1980387,4.60472917 23.2064077,4.60665179 23.2147768,4.60665179 C23.2169256,4.60665179 23.2189048,4.60591667 23.220997,4.60563393 C23.2151726,4.65454762 23.1953244,4.71296131 23.1326696,4.72670238 C23.1042262,4.73292262 23.0740298,4.73597619 23.0448512,4.73897321 C22.9119643,4.75260119 22.761378,4.76803869 22.7375714,5.07254762 C22.7357619,5.09539286 22.7485982,5.1169375 22.7695774,5.12621131 C22.7905,5.13537202 22.8149851,5.13050893 22.8307619,5.11388393 L22.8886101,5.05236012 C22.9226518,5.06072917 22.976881,5.0693244 23.0349554,5.0599375 C23.0203661,5.13039583 23.0246637,5.21713988 23.0951786,5.29070833 C23.1104464,5.30659821 23.1338571,5.31163095 23.1543274,5.30343155 C23.1747976,5.2951756 23.1881994,5.27532738 23.1881994,5.25333036 L23.1881994,5.2143125 C23.2217321,5.20650893 23.2662351,5.19022321 23.3083065,5.15674702 C23.3329613,5.20995833 23.3800089,5.2723869 23.4695804,5.32508929 C23.4780625,5.33006548 23.4875625,5.33249702 23.4969494,5.33249702 C23.5093333,5.33249702 23.5216042,5.32825595 23.5314435,5.32 C23.5489732,5.30546726 23.5554762,5.28143452 23.5476726,5.25994643 L23.5194554,5.1823631 C23.5391339,5.16296726 23.5646935,5.13520238 23.5870298,5.10557143 C23.5980565,5.12163095 23.6166042,5.13084821 23.6363958,5.1289256 C23.6569226,5.12694643 23.6745655,5.11343155 23.6818036,5.09409226 L23.7016518,5.04122024 C23.7133571,5.03799702 23.7245536,5.03409524 23.7352411,5.02974107 C23.7485298,5.1467381 23.838497,5.2441131 23.8439256,5.24988095 C23.8542738,5.26085119 23.8685804,5.26690179 23.8832827,5.26690179 C23.8876369,5.26690179 23.8921042,5.26639286 23.8964583,5.2652619 C23.9155149,5.26045536 23.9303869,5.24580952 23.9355327,5.22686607 L23.9656161,5.1145625 C24.0453482,5.07413095 24.0531518,5.00101488 24.0580149,4.9554375 C24.0589762,4.94650298 24.0603333,4.93411905 24.0605595,4.92784226 C24.0917173,4.94316667 24.1577649,5.01735714 24.2075833,5.09431845 C24.2174792,5.10958631 24.2345,5.11897321 24.2527083,5.11902976 C24.271256,5.11772917 24.2879375,5.11003869 24.2980595,5.09482738 C24.2980595,5.09482738 24.340244,5.03092857 24.3607708,4.99366369 C24.4478542,4.8356131 24.3159286,4.74095238 24.2525387,4.6954881 C24.2369881,4.68429167 24.2156696,4.66902381 24.2122202,4.66478274 C24.2002887,4.63583036 24.2044732,4.60885714 24.2123333,4.58793452 C24.2652054,4.62435119 24.3252589,4.65505655 24.391872,4.67072024 C24.396,4.6717381 24.400128,4.67213393 24.4041994,4.67213393 C24.4215595,4.67213393 24.4381845,4.66370833 24.4484196,4.6490625 C24.4610863,4.63096726 24.4614821,4.60693452 24.449381,4.5885 C24.4481935,4.58663393 24.3488393,4.43384226 24.2848274,4.24593452 C24.3881964,4.30661012 24.5281518,4.37983929 24.6007589,4.37983929 C24.6505774,4.37983929 24.6695774,4.34885119 24.6755149,4.3355625 C24.6789643,4.32775893 24.6851845,4.31362202 24.6802649,4.28715774 C24.7763393,4.33906845 24.8847411,4.37933036 24.967131,4.35806845 C24.9914464,4.35184821 25.048503,4.33708929 25.0571548,4.28591369 C25.0615089,4.26001488 25.0528006,4.23903571 25.0336875,4.21839583 C25.1229196,4.24005357 25.2191071,4.25085417 25.3134851,4.23835714 C25.3921429,4.22800893 25.4153839,4.18983929 25.4209256,4.15958631 C25.4244881,4.14024702 25.4308214,4.10309524 25.3606458,4.0328631 C25.4961905,4.02545536 25.6172024,3.9958244 25.6271548,3.91405655 C25.628003,3.90670536 25.6266458,3.90003274 25.6260238,3.89313393 C26.0616667,3.84563393 26.3931488,3.5731875 26.4077946,3.56091667 C26.4120357,3.55735417 26.4149196,3.55294345 26.4178036,3.54847619 C26.6815417,3.51550893 26.981131,3.45596429 27.2236637,3.34694048 C27.6813601,3.14116369 27.9131488,2.86334524 27.8716429,2.76252083 C27.8595982,2.73317262 27.8249911,2.71196726 27.7822976,2.72791369 C27.7703095,2.73238095 27.7460506,2.74222024 27.7142708,2.7551131 C27.9853036,2.53497321 28.0913304,2.33083631 28.1014524,2.31047917 L28.1014524,2.31047917 Z" fill="#FF9B55">
        </path>
        <path d="M28.1014524,2.31047917 C28.1123095,2.28859524 28.1071071,2.26213095 28.0887857,2.24595833 C28.0703512,2.22972917 28.0434345,2.22803274 28.0231339,2.24149107 C27.9221964,2.30855655 27.8203542,2.36940179 27.7194732,2.42464881 C28.0443958,2.15610417 28.0899732,1.92290179 28.0928571,1.9059375 C28.0965327,1.88461905 28.0870327,1.8630744 28.068881,1.8514256 C28.0506161,1.83960714 28.0272054,1.83988988 28.0092798,1.85210417 C27.6582887,2.09016964 27.3070149,2.26009524 27.0041458,2.37969345 C27.4109494,2.12268452 27.5721101,1.86052976 27.5819494,1.84396131 C27.5946726,1.8226994 27.5912232,1.7955 27.5736935,1.77797024 C27.5561637,1.76044048 27.5289643,1.75721726 27.5077024,1.76999702 C27.1829494,1.96576488 26.7983125,2.12008333 26.4306964,2.23905952 C26.479497,2.1637381 26.5142738,2.07914286 26.4830595,2.03158631 C26.4540506,1.98747917 26.401122,1.98747917 26.3255179,2.03175595 C26.1725,2.12144048 25.0129911,2.41701488 24.5637202,2.5271131 C24.1057976,2.44438393 23.7263631,2.56172024 23.608122,2.60509226 C23.5766815,2.56760119 23.5622619,2.53129762 23.5561548,2.50296726 C23.5463155,2.45676786 23.553497,2.40983333 23.5753244,2.37731845 C23.6109494,2.32433333 23.6845744,2.3193006 23.7495476,2.31477679 C23.7777649,2.31285417 23.8029851,2.31110119 23.8250952,2.30561607 C23.8392321,2.30974405 23.8565357,2.31794345 23.8563095,2.32422024 C23.8550089,2.348875 23.8705595,2.37115476 23.8940833,2.3785625 C23.9176637,2.38591369 23.9430536,2.37652679 23.9561726,2.35554762 C23.9595089,2.35028869 24.0357917,2.22520536 23.9766994,2.11872619 C23.9336667,2.0413125 23.8349345,2.00059821 23.6829345,1.99765774 C23.6205625,1.95417262 23.3850982,1.81257738 23.0948958,1.92199702 C22.8010179,2.03283036 22.670506,2.3347381 22.6273601,2.46230952 C22.398625,2.43052976 21.3484226,2.27027381 20.7774613,1.93511607 C20.749753,1.92250595 20.6550357,1.88541071 20.6020506,1.9357381 C20.5695357,1.96655655 20.565747,2.01439583 20.590628,2.0780119 C20.6038601,2.11171429 20.6241607,2.144625 20.6510774,2.17697024 C20.3454375,2.0366756 19.9334881,1.8407381 19.6219673,1.66651488 C19.5732798,1.64395238 19.4848393,1.61324702 19.4392619,1.66108631 C19.4107054,1.69116964 19.4110446,1.73488095 19.4405625,1.79103274 C19.4467827,1.80290774 19.4528899,1.81613988 19.459619,1.83067262 C19.4899286,1.89598512 19.5312083,1.98504762 19.6322589,2.08796429 C19.5568244,2.04674107 19.4887411,2.00433036 19.4342292,1.96191964 C19.160878,1.74924405 19.1237827,1.72843452 19.074869,1.76145833 C19.0326845,1.78990179 19.0463125,1.83785417 19.0607321,1.88869048 L19.0645208,1.90209226 C19.0763958,1.94433333 19.0957351,2.01241667 19.1488899,2.09452381 C19.1065357,2.06568452 19.070119,2.05980357 19.0414494,2.07982143 C19.024372,2.09152679 18.9986429,2.12104464 19.0184911,2.18584821 C19.0659911,2.34084524 19.3945327,2.74883631 20.019497,2.8691131 C19.9566726,2.87827381 19.890625,2.88505952 19.8268393,2.88636012 C19.8025804,2.88686905 19.7816012,2.9034375 19.7756071,2.92690476 C19.7696131,2.95037202 19.7799613,2.97502679 19.800997,2.98712798 C19.8124196,2.9936875 20.0332946,3.1173006 20.4382887,3.10678274 C20.3777262,3.1220506 20.3090208,3.13386905 20.2329643,3.13833631 C20.2093839,3.13969345 20.1893661,3.156375 20.1837113,3.17933333 C20.1780565,3.20229167 20.1880089,3.22626786 20.2083095,3.23848214 C20.2203542,3.24577679 20.4553661,3.38403571 20.81925,3.36356548 L20.7875268,3.3830744 C20.7693185,3.39432738 20.7593661,3.41519345 20.7623065,3.43639881 C20.765247,3.45760417 20.7804583,3.47513393 20.8009851,3.48101488 C20.8123512,3.4842381 21.0174494,3.54129464 21.2729315,3.51432143 L21.2280327,3.54627083 C21.209994,3.55910714 21.2015685,3.58166964 21.2068839,3.60315774 C21.2121429,3.62464583 21.2299554,3.6407619 21.2518958,3.64375893 C21.2565327,3.6444375 21.2896131,3.64873512 21.3425417,3.64873512 C21.3774315,3.64873512 21.4209732,3.6468125 21.470622,3.6407619 C21.4694911,3.65365476 21.4710179,3.66654762 21.4752589,3.67927083 C21.5008185,3.75623214 21.6141399,3.77483631 21.6518571,3.77534524 L21.6586994,3.77534524 C21.7043333,3.77534524 21.7524554,3.76889881 21.8017083,3.75911607 C21.8804792,3.83268452 22.0242798,3.82595536 22.1637827,3.79349702 C22.1555268,3.8060506 22.14925,3.81860417 22.1452351,3.83104464 C22.1372054,3.85654762 22.1433125,3.88255952 22.1615774,3.90076786 C22.1793899,3.91835417 22.2221399,3.96087798 22.6121488,3.85123214 C22.6105089,3.85253274 22.6089256,3.85372024 22.6072857,3.85502083 C22.5554315,3.89516964 22.5587113,3.93661905 22.5653274,3.95776786 C22.589247,4.03444643 22.7612649,4.08358631 23.0734077,4.10450893 C23.0803065,4.27811012 23.0320149,4.46663988 23.0315625,4.46873214 C23.0261339,4.48948512 23.0335417,4.51153869 23.0504494,4.52482738 C23.0673006,4.53800298 23.0904286,4.54003869 23.1094286,4.52991667 C23.1275238,4.52019048 23.1454494,4.5076369 23.1624137,4.49412202 L23.1609435,4.55146131 C23.160378,4.57232738 23.1718571,4.59161012 23.1904613,4.60099702 C23.1982649,4.60495536 23.2065774,4.60687798 23.215003,4.60687798 C23.2171518,4.60687798 23.219131,4.60608631 23.2212232,4.60580357 C23.2153988,4.65471726 23.1955506,4.71313095 23.1327827,4.72687202 C23.1043393,4.73309226 23.0741994,4.73614583 23.0449643,4.73914286 C22.9120774,4.75277083 22.7614911,4.76820833 22.7376845,5.07277381 C22.7359315,5.09561905 22.7487113,5.1170506 22.7696905,5.12638095 C22.7905565,5.13548512 22.8150982,5.13067857 22.8308185,5.11405357 L22.8886667,5.05252976 C22.9226518,5.06089881 22.976994,5.0694375 23.0350119,5.06010714 C23.0204226,5.13056548 23.0247202,5.21730952 23.0952351,5.29087798 C23.110503,5.30676786 23.1339137,5.3118006 23.1543839,5.30360119 C23.1748542,5.29534524 23.1881994,5.27549702 23.1881994,5.2535 L23.1881994,5.21448214 C23.2217321,5.20667857 23.2662351,5.19039286 23.3083065,5.15691667 C23.3329613,5.21012798 23.3800089,5.2726131 23.4695804,5.32525893 C23.4780625,5.33023512 23.4875625,5.33272321 23.4969494,5.33272321 C23.5092768,5.33272321 23.5216042,5.32848214 23.5315,5.32022619 C23.5490298,5.30569345 23.5555327,5.28166071 23.5477292,5.26028571 L23.5195119,5.18264583 C23.5391905,5.16325 23.5648065,5.13554167 23.5870863,5.10591071 C23.5981131,5.12197024 23.6166607,5.1311875 23.6364524,5.12926488 C23.6570357,5.12728571 23.674622,5.11377083 23.6819167,5.09443155 L23.7017649,5.04155952 C23.7134702,5.03833631 23.7246667,5.03443452 23.7353542,5.03008036 C23.7486429,5.14707738 23.8386101,5.24445238 23.8440387,5.25022024 C23.8543869,5.26124702 23.8686935,5.26724107 23.8833393,5.26724107 C23.88775,5.26724107 23.8921607,5.26673214 23.8965149,5.26560119 C23.9155714,5.26079464 23.9304435,5.24614881 23.9355327,5.22720536 L23.9656161,5.11490179 C24.0453482,5.07452679 24.0531518,5.00135417 24.0580149,4.95577679 C24.0589762,4.94684226 24.0603333,4.93445833 24.0605595,4.92818155 C24.0917173,4.94350595 24.1577649,5.01769643 24.2075833,5.09465774 C24.2174792,5.1099256 24.2345,5.1193125 24.2527083,5.11936905 C24.271256,5.11806845 24.2879375,5.11032143 24.2980595,5.09511012 C24.2980595,5.09511012 24.340244,5.03126786 24.3607708,4.99394643 C24.4478542,4.83589583 24.3159286,4.74123512 24.2525387,4.69577083 C24.2369881,4.6845744 24.2156696,4.66930655 24.2122202,4.66506548 C24.2003452,4.6361131 24.2044732,4.60913988 24.2122768,4.58821726 C24.2651488,4.62463393 24.3252589,4.65533929 24.3918155,4.67100298 C24.3959435,4.67202083 24.4000714,4.67241667 24.4041429,4.67241667 C24.421503,4.67241667 24.438128,4.66399107 24.4483631,4.64934524 C24.4610863,4.63125 24.4614256,4.60721726 24.4493244,4.58878274 C24.4481369,4.58691667 24.3487827,4.434125 24.2847708,4.24621726 C24.388253,4.30677976 24.5280952,4.38012202 24.6007024,4.38012202 C24.6505208,4.38012202 24.6695208,4.34913393 24.6754018,4.33584524 C24.6789077,4.32804167 24.6850714,4.31390476 24.6801518,4.28744048 C24.7762827,4.33940774 24.884628,4.3796131 24.9670179,4.35835119 C24.9913333,4.3520744 25.0483899,4.33731548 25.0570417,4.28619643 C25.0613958,4.26024107 25.0526875,4.239375 25.0335744,4.21867857 C25.1228065,4.24033631 25.218994,4.2511369 25.3133155,4.23863988 C25.3919732,4.22823512 25.4152143,4.19012202 25.4208125,4.15986905 C25.424375,4.14052976 25.4307083,4.10337798 25.3605327,4.03314583 C25.4960774,4.0257381 25.6170893,3.99610714 25.6270417,3.91433929 C25.628003,3.9069881 25.6265893,3.90031548 25.6259107,3.89341667 C26.0615536,3.84591667 26.3930357,3.57347024 26.4076815,3.5611994 C26.4119226,3.5576369 26.4148065,3.55322619 26.4176905,3.54875893 C26.6814286,3.51584821 26.9810179,3.45630357 27.2235506,3.34727976 C27.681247,3.14150298 27.9130357,2.86368452 27.8715298,2.76286012 C27.8594851,2.7335119 27.824878,2.71225 27.7821845,2.72825298 C27.770253,2.73272024 27.7459375,2.74255952 27.7142143,2.75550893 C27.9853036,2.53497321 28.0913304,2.33083631 28.1014524,2.31047917 L28.1014524,2.31047917 Z M27.3058839,2.00382143 C27.1069494,2.19845833 26.7321518,2.47836905 26.1140298,2.64077381 C26.1086577,2.6421875 26.1040208,2.64495833 26.0995536,2.64778571 C25.9696071,2.63766369 25.8052798,2.61397024 25.6611964,2.5601369 C26.1179881,2.45654167 26.759747,2.27807738 27.3058839,2.00382143 L27.3058839,2.00382143 Z M24.5554077,2.63534524 C24.5630417,2.63670238 24.5707321,2.63653274 24.5781964,2.63472321 C24.6424911,2.61900298 26.130372,2.25410119 26.3692292,2.13088393 C26.3414643,2.18562202 26.2881399,2.2623006 26.2444851,2.29430655 C26.2432411,2.29515476 26.2426756,2.29656845 26.2415446,2.29752976 C25.6008601,2.4876994 25.0571548,2.56788393 25.0482202,2.56912798 C25.0187024,2.57336905 24.9981756,2.6007381 25.0024167,2.63025595 C25.0066577,2.65977381 25.0339137,2.68024405 25.0635446,2.67605952 C25.0684643,2.6753244 25.2335833,2.65106548 25.4870863,2.5981369 C25.6183333,2.67340179 25.7796637,2.71490774 25.9265744,2.73735714 C25.7071131,2.75590476 25.503994,2.74527381 25.5006577,2.74510417 C25.4750982,2.74414286 25.4501607,2.76195536 25.4447887,2.7881369 C25.4394167,2.81431845 25.4539494,2.84055655 25.4791131,2.84971726 L25.6834196,2.92458631 C25.3961577,2.98571429 25.1191875,2.92831845 25.1159077,2.92763988 C25.0937411,2.92272024 25.0711786,2.93238988 25.0590774,2.95133333 C25.0469762,2.97027679 25.0478244,2.99481845 25.0613393,3.0128006 C25.1003571,3.0648244 25.2103988,3.11950595 25.3064167,3.1598244 C24.9114881,3.23458036 24.6397202,2.9925 24.6268839,2.98085119 C24.6049435,2.96083333 24.5709018,2.96224702 24.5508274,2.9840744 C24.5306964,3.00590179 24.5318839,3.03983036 24.5534851,3.06013095 C24.8654583,3.35208631 25.446881,3.47643452 25.7078482,3.51924107 C25.6692262,3.54208631 25.622631,3.56363095 25.5738304,3.57233929 C25.3735387,3.60790774 24.9110923,3.3879375 24.5857173,3.20998214 L24.3251458,3.05962202 C24.2996429,3.04480655 24.2668452,3.05340179 24.251747,3.07873512 C24.2365923,3.104125 24.2446786,3.13697917 24.2698423,3.15241667 C24.2823393,3.16010714 24.3845208,3.22264881 24.5297351,3.3024375 L25.1639167,3.66847024 C24.9693363,3.69250298 24.7640685,3.64896131 24.7615238,3.64839583 C24.7599405,3.64805655 24.7584702,3.64850893 24.7568869,3.64833929 C24.6084494,3.54395238 24.3689137,3.36820238 24.0092708,3.06997024 C23.9513661,2.86334524 23.8429077,2.77258631 23.7071369,2.68635119 C23.8606637,2.63924702 24.1843423,2.56573512 24.5554077,2.63534524 L24.5554077,2.63534524 Z M24.9488075,3.78070777 C24.9481859,3.78091498 24.9477715,3.78143299 24.9470462,3.7816402 C24.9470462,3.7816402 24.9461138,3.78091498 24.9456994,3.78060417 C24.946839,3.78060417 24.9478751,3.78070777 24.9488075,3.78070777 L24.9488075,3.78070777 Z M21.4289464,3.53569643 L21.552503,3.44776488 C21.5744435,3.43215774 21.5815685,3.40269643 21.569128,3.37883333 C21.556631,3.35485714 21.5283571,3.34394345 21.5030238,3.35287798 C21.2989435,3.42576786 21.0922619,3.41836012 20.9629375,3.40173512 L21.106003,3.31369048 C21.1287917,3.29966667 21.1378958,3.27105357 21.1273214,3.24639881 C21.1168601,3.2218006 21.0899435,3.208625 21.0639315,3.21541071 C20.8035298,3.28377679 20.5866696,3.25538988 20.4446786,3.21620238 C20.6703601,3.1635 20.801381,3.0636369 20.8083363,3.05832143 C20.8280714,3.04305357 20.834744,3.01619345 20.8245089,2.99340476 C20.8142173,2.97067262 20.7897887,2.9581756 20.765247,2.96252976 C20.46775,3.01856845 20.2380536,3.00007738 20.0837917,2.96818452 C20.2431429,2.9414375 20.3698095,2.90338095 20.3776696,2.90100595 C20.378631,2.90077976 20.379253,2.8999881 20.3801012,2.89970536 C20.3837768,2.89840476 20.3868304,2.8963125 20.3901101,2.89433333 C20.392881,2.89258036 20.3956518,2.89116667 20.3980268,2.88901786 C20.400628,2.88664286 20.4024375,2.88381548 20.4045863,2.8809881 C20.406622,2.87821726 20.4087708,2.87572917 20.4102411,2.8726756 C20.4115982,2.86973512 20.4122202,2.8665119 20.413125,2.86340179 C20.4141429,2.85972619 20.4151607,2.85627679 20.4154435,2.85243155 C20.4154435,2.85158333 20.4159524,2.85079167 20.4159524,2.8498869 C20.4159524,2.84705952 20.4148214,2.84457143 20.414369,2.84185714 C20.4139732,2.8391994 20.4144256,2.83648512 20.4136339,2.83377083 C20.4134077,2.83292262 20.4126726,2.83235714 20.4123899,2.83150893 C20.4110893,2.82788988 20.4090536,2.82483631 20.4070744,2.8216131 C20.4053214,2.81878571 20.4039077,2.81584524 20.4017024,2.81341369 C20.3993839,2.81086905 20.3966131,2.80905952 20.3938423,2.80696726 C20.3910149,2.80481845 20.3884702,2.8026131 20.3853036,2.80108631 C20.3824196,2.79972917 20.3791964,2.79910714 20.3760863,2.79825893 C20.3724107,2.79718452 20.3689048,2.79611012 20.3650595,2.79588393 C20.3640982,2.79582738 20.3634196,2.79531845 20.3625149,2.79531845 C19.668619,2.78881548 19.2856786,2.4238006 19.1630268,2.23753274 C19.3792083,2.3881756 19.663247,2.51602976 19.8700982,2.58942857 L19.8702679,2.58942857 C20.145372,2.69568155 20.4882768,2.76336905 20.5028095,2.76619643 C20.5319881,2.77185119 20.5604881,2.75290774 20.5661994,2.72355952 C20.5719673,2.69426786 20.5528542,2.66588095 20.5235625,2.66016964 C20.5200565,2.65949107 20.1742679,2.59129464 19.9077024,2.48809524 C19.3328393,2.2656369 19.2163512,2.0246875 19.177503,1.90299702 C19.2396488,1.94716071 19.3231131,2.01213393 19.3678423,2.04691071 C19.7043571,2.3086131 20.4873155,2.55612202 20.5205089,2.56658333 C20.5488958,2.5755744 20.5788095,2.55996726 20.5880268,2.53180655 C20.5971875,2.50364583 20.5820893,2.47339286 20.5540982,2.46383631 C19.744506,2.18805357 19.6229286,1.92584226 19.5576161,1.78503869 C19.5519613,1.7728244 19.5466458,1.76140179 19.5413869,1.75077083 C19.5523006,1.75416369 19.5636667,1.75834821 19.5728839,1.76247619 C20.0217024,2.01360417 20.6813304,2.3109881 20.9306488,2.42136905 C20.8858065,2.44297024 20.8387589,2.46100893 20.8076012,2.4627619 C20.7868482,2.4639494 20.7684702,2.47689881 20.7606101,2.49629464 C20.7526935,2.51557738 20.7565952,2.5376875 20.770619,2.55306845 C20.7739554,2.5566875 20.8268274,2.61340476 20.929631,2.63562798 L20.8566845,2.68318452 C20.8396071,2.69438095 20.8302202,2.71428571 20.8325387,2.73458631 C20.8349137,2.75494345 20.8484851,2.77219048 20.8677113,2.77920238 C20.8726875,2.7810119 20.9560387,2.81036012 21.0661935,2.82195238 L21.0054613,2.86622917 C20.9900238,2.87748214 20.9817679,2.89602976 20.9835774,2.91502976 C20.9853869,2.93402976 20.9970923,2.95065476 21.0143958,2.95879762 C21.0214643,2.96207738 21.1044762,2.99979464 21.2377024,2.99351786 L21.233122,2.99668452 C21.2155923,3.0090119 21.206997,3.03055655 21.2111815,3.05159226 C21.2153661,3.07262798 21.2317649,3.08913988 21.252744,3.09372024 C21.261,3.09547321 21.3630119,3.11645238 21.5093571,3.09982738 L21.4761071,3.12199405 C21.4584077,3.1336994 21.4493036,3.15490476 21.452753,3.17582738 C21.4562589,3.19680655 21.4716964,3.21377083 21.4923363,3.2191994 C21.5080565,3.22327083 21.7444256,3.28208036 22.0546458,3.1836875 C21.9896161,3.22649405 21.928997,3.25753869 21.8788958,3.26879167 C21.8560506,3.27399405 21.8390863,3.29327679 21.836994,3.31663095 C21.8348452,3.33998512 21.8480774,3.36203869 21.869622,3.37125595 C21.8710357,3.37187798 21.8763512,3.37391369 21.8834196,3.37645833 C21.7176786,3.48616071 21.5482054,3.52427381 21.4289464,3.53569643 L21.4289464,3.53569643 Z M21.1675833,2.55578274 C21.157122,2.5316369 21.1308839,2.51840476 21.1052113,2.52479464 C21.0426696,2.5400625 20.9920595,2.53853571 20.9530417,2.53027976 C21.0170536,2.50177976 21.0717351,2.46779464 21.0814613,2.46163095 C21.0854196,2.45914286 21.088756,2.45614583 21.0918095,2.45292262 C21.1879405,2.49160119 21.2970208,2.52875298 21.4193899,2.56426488 L21.2120298,2.71558631 C21.1425893,2.7229375 21.0737143,2.71632143 21.0188065,2.70648214 L21.1475089,2.62256548 C21.1695625,2.60803274 21.1780446,2.57987202 21.1675833,2.55578274 L21.1675833,2.55578274 Z M21.6529315,3.66722619 C21.6324048,3.667 21.5945179,3.65648214 21.5804375,3.64647321 C21.584,3.64081845 21.5929911,3.62967857 21.6129524,3.61384524 C21.7404673,3.58116071 21.8869256,3.51918452 22.0272768,3.4046756 C22.1745268,3.4153631 22.4060893,3.38036012 22.6420625,3.14325595 C22.6507708,3.15903274 22.6599315,3.17503571 22.670506,3.19132143 C22.6449464,3.21060417 22.0351369,3.67061905 21.6529315,3.66722619 L21.6529315,3.66722619 Z M22.0743244,3.29836607 C22.249,3.19324405 22.4444286,3.0104256 22.5663452,2.88822619 C22.5682113,2.93289881 22.5768631,2.9841875 22.5962589,3.04045238 C22.5920744,3.04294048 22.5877202,3.04520238 22.5841577,3.04893452 C22.3905387,3.25312798 22.2021786,3.29819643 22.0743244,3.29836607 L22.0743244,3.29836607 Z M23.0890149,3.99763393 C22.9111726,3.98547619 22.7456012,3.9578244 22.6850952,3.93113393 C22.8322321,3.81628571 22.8744167,3.76561905 22.8788274,3.76002083 C22.8936994,3.74141667 22.8946042,3.71523512 22.8810893,3.6956131 C22.8674613,3.67593452 22.8425804,3.66745238 22.8200179,3.67491667 C22.6261726,3.73757143 22.3996994,3.7986994 22.2878482,3.81441964 C22.3391935,3.76833333 22.4305744,3.71008929 22.5130208,3.66880952 C22.5394851,3.65557738 22.5503988,3.62351488 22.537506,3.5969375 C22.5246131,3.57030357 22.4927202,3.55910714 22.4659167,3.57160417 C22.3188929,3.6407619 22.1084226,3.71042857 21.9767232,3.70935417 C22.3352351,3.58025595 22.7007589,3.30413393 22.7355357,3.2775 C22.763131,3.31035417 22.7935536,3.34377381 22.8301964,3.37775893 C23.1528006,3.6776875 23.1174583,3.91303869 23.0890149,3.99763393 L23.0890149,3.99763393 Z M23.1780208,4.32702381 C23.1750804,4.33058631 23.171122,4.33527976 23.1662024,4.34070833 C23.1779077,4.26075 23.1862768,4.16043452 23.1786429,4.06503869 C23.2083304,3.99972619 23.268497,3.80610714 23.1127649,3.54926786 C23.2154554,3.56419643 23.4512024,3.61361905 23.5532143,3.762 C23.5667292,3.78167857 23.5801875,3.80350595 23.5934762,3.826125 L23.5933631,3.82629464 C23.5883304,3.83822619 23.4861488,4.08562202 23.5187768,4.39488095 C23.4948571,4.36672024 23.4720685,4.33222619 23.456744,4.29179464 C23.449506,4.27285119 23.432372,4.2594494 23.412128,4.2573006 C23.3921667,4.25515179 23.3722619,4.26436905 23.3610655,4.28133333 C23.3382768,4.31588393 23.3053661,4.36327083 23.2725685,4.40641667 L23.2736994,4.3627619 C23.2743214,4.33974702 23.2602411,4.31888095 23.2386399,4.31079464 C23.2171518,4.30270833 23.1927232,4.30915476 23.1780208,4.32702381 L23.1780208,4.32702381 Z M23.5262976,4.99943155 C23.5155536,5.03160714 23.4579315,5.09375298 23.420497,5.1275119 C23.4191964,5.1286994 23.4178958,5.13 23.4167083,5.1313006 C23.3884911,5.08464881 23.3895089,5.04772321 23.3895655,5.0456875 C23.3914315,5.02041071 23.3754851,4.99728274 23.3512262,4.98993155 C23.3269107,4.9826369 23.3008423,4.99321131 23.2885149,5.01526488 C23.2390923,5.10347917 23.1523482,5.11252679 23.1364583,5.11354464 C23.1392292,5.04845833 23.1767768,4.98930952 23.1792083,4.98569048 C23.1941369,4.96295833 23.1898393,4.93264881 23.1691429,4.91500595 C23.1485595,4.8973631 23.1179673,4.89770238 23.0977798,4.91596726 C23.0185,4.98772619 22.8925685,4.9413006 22.8914375,4.94090476 C22.8862351,4.9389256 22.8809196,4.9377381 22.8755476,4.93734226 C22.9104375,4.86145536 22.9714524,4.85523512 23.0557649,4.84663988 C23.0879405,4.84336012 23.121247,4.83991071 23.1556845,4.83233333 C23.3219345,4.79597321 23.3415565,4.61219345 23.3286637,4.52007738 C23.3282679,4.51753274 23.3269107,4.51544048 23.3261756,4.51306548 C23.3521875,4.48105952 23.3781429,4.446 23.3996875,4.41574702 C23.4102054,4.4318631 23.4215149,4.44639583 23.432881,4.4601369 C23.4332202,4.4995506 23.4354256,4.62107143 23.4491101,4.68502679 C23.4599673,4.73580655 23.497119,4.77001786 23.532744,4.79195833 C23.5268631,4.8034375 23.5218869,4.81553869 23.5187202,4.82865774 C23.505997,4.88096429 23.5167976,4.93847321 23.5329702,4.98778274 C23.5304821,4.99168452 23.5277113,4.99507738 23.5262976,4.99943155 L23.5262976,4.99943155 Z M23.5547411,4.66252083 C23.5495387,4.63843155 23.5463155,4.60054464 23.5442232,4.56243155 C23.5593214,4.57283631 23.5699524,4.5791131 23.5714792,4.57990476 C23.590253,4.59030952 23.6135506,4.58872619 23.630628,4.5755506 C23.6476488,4.56243155 23.6553393,4.54043452 23.6501369,4.519625 C23.5930804,4.29145536 23.6313065,4.0779881 23.6629732,3.96104762 C23.755994,4.16546726 23.8227202,4.41772619 23.7996488,4.58408929 C23.7960863,4.60953571 23.8110149,4.63396429 23.8352173,4.64250298 C23.84025,4.64425595 23.8454524,4.64482143 23.8505417,4.64504762 C23.8499762,4.65070238 23.8494107,4.65669643 23.8487321,4.66195536 C23.7940506,4.66025893 23.7040268,4.66862798 23.6167738,4.71403571 C23.5917798,4.70351786 23.5594345,4.68440476 23.5547411,4.66252083 L23.5547411,4.66252083 Z M24.2661101,4.94175298 C24.2618125,4.94955655 24.256497,4.95854762 24.2508423,4.96782143 C24.186378,4.88243452 24.0978244,4.79461607 24.0220506,4.82322917 C23.9609792,4.84652679 23.9547024,4.90527976 23.9505179,4.94424107 C23.9455417,4.99123214 23.9419792,5.01079762 23.9027917,5.02425595 C23.8857708,5.03008036 23.8727649,5.04399107 23.8680714,5.06129464 L23.8620208,5.08374405 C23.8414375,5.03839286 23.8305238,4.98365476 23.8612292,4.93700298 C23.8769494,4.91308333 23.8712381,4.88113393 23.8482232,4.86405655 C23.8252083,4.84703571 23.7928065,4.85088095 23.7744851,4.87287798 C23.7739762,4.87344345 23.7250625,4.93100893 23.6539256,4.94113095 C23.6465744,4.94220536 23.639619,4.94475 23.6334554,4.94848214 C23.6231071,4.91545833 23.6171696,4.88090774 23.6236726,4.85416071 C23.6275744,4.83821429 23.6354911,4.82735714 23.6491756,4.81904464 C23.7573512,4.7535625 23.883622,4.77216667 23.8846964,4.77239286 C23.9131964,4.77714286 23.9394345,4.75910417 23.945881,4.73145238 C23.9488214,4.719125 23.9719494,4.61377679 23.9550417,4.5255625 L24.0249345,4.40816964 C24.0500417,4.44028869 24.0840268,4.47970238 24.1256458,4.51849405 C24.1026875,4.56056548 24.0802946,4.62853571 24.112244,4.7060625 C24.1250804,4.73727679 24.1549375,4.75865179 24.1894881,4.7833631 C24.2775893,4.84663988 24.3009435,4.87841964 24.2661101,4.94175298 L24.2661101,4.94175298 Z M24.0672321,4.28122024 C24.0573363,4.26499107 24.0376577,4.25622619 24.0208065,4.25526488 C24.0018631,4.25532143 23.9843899,4.26533036 23.9746071,4.28161607 L23.9044315,4.3995744 C23.8748006,4.16071726 23.7622708,3.87537798 23.6422202,3.70070238 C23.4861488,3.47366369 23.1002113,3.43063095 23.0274345,3.43091369 C22.9920357,3.3879375 22.9525089,3.344 22.9037083,3.29864881 C22.5833661,3.00086905 22.6887143,2.76286012 22.6938036,2.75177679 C22.694256,2.75081548 22.6941429,2.74985417 22.6945387,2.74889286 C22.6959524,2.7453869 22.6965744,2.74188095 22.6971964,2.7382619 C22.6978185,2.73498214 22.6986101,2.73175893 22.6986101,2.72842262 C22.6986101,2.72497321 22.6978185,2.72180655 22.697253,2.71841369 C22.6965744,2.71496429 22.6960655,2.71162798 22.6948214,2.70829167 C22.6935774,2.70529464 22.6917679,2.70275 22.6899583,2.69992262 C22.6879792,2.6966994 22.6860565,2.69353274 22.6832857,2.69081845 C22.6825506,2.69008333 22.6822679,2.68906548 22.6814762,2.68833036 C22.6795536,2.68657738 22.6771786,2.68589881 22.6750298,2.68448512 C22.6728244,2.68301488 22.6712976,2.68092262 22.6688661,2.67973512 C22.6678482,2.67922619 22.6668304,2.67933929 22.6658125,2.67894345 C22.6623065,2.67752976 22.6588006,2.67679464 22.655125,2.67611607 C22.6517321,2.67549405 22.6485655,2.67470238 22.6452857,2.67470238 C22.6418363,2.67470238 22.6386696,2.6754375 22.6352768,2.67605952 C22.6317708,2.67668155 22.6284345,2.67719048 22.6251548,2.67849107 C22.6221577,2.67967857 22.6195565,2.68154464 22.6167292,2.68329762 C22.613506,2.68533333 22.6103393,2.68725595 22.607625,2.68997024 C22.6068899,2.69070536 22.605872,2.69104464 22.6051935,2.69177976 L22.6051369,2.69183631 L22.6051369,2.69183631 C22.2385952,3.09225 21.8549762,3.1398631 21.6562113,3.13149405 L21.886756,2.97774107 C21.9320506,2.95240774 21.9777976,2.92226786 22.0232619,2.88658631 C22.0461071,2.86860417 22.050631,2.83591964 22.0336667,2.81245238 C22.0166458,2.78887202 21.9840744,2.78310417 21.9599851,2.79922024 L21.833375,2.88358929 C21.677247,2.97022024 21.526378,2.99351786 21.4209732,2.99679762 L21.5410804,2.91259821 C21.6333661,2.86798214 21.7340774,2.80097321 21.8401607,2.70224107 C21.8609137,2.68290179 21.8632321,2.65078274 21.8453631,2.62872917 C21.8276071,2.6066756 21.7957708,2.60226488 21.7723601,2.6184375 L21.486003,2.81918155 C21.3499494,2.88325 21.2385506,2.89111012 21.1637381,2.88426786 L21.5731994,2.58535714 C21.5900506,2.57308631 21.5983065,2.55222024 21.5944048,2.53175 C21.5905595,2.51127976 21.5752917,2.49488095 21.5552173,2.48950893 C20.8877292,2.31183631 20.7273036,2.1304881 20.6911131,2.03814583 C20.6879464,2.03005952 20.6858542,2.02355655 20.6846101,2.01846726 C20.6980685,2.02050298 20.7161071,2.02559226 20.727756,2.0305119 C21.3817292,2.41480952 22.6068899,2.56873214 22.6586875,2.57517857 C22.685378,2.57783631 22.7101458,2.56177679 22.7172708,2.53599107 C22.7357619,2.46949107 22.8425804,2.13224107 23.1328393,2.02270833 C23.4065863,1.91962202 23.6221458,2.08638095 23.6310804,2.09333631 C23.6406935,2.10102679 23.6525685,2.10521131 23.6648393,2.10521131 C23.7811577,2.10521131 23.8582887,2.12839583 23.8819256,2.17058036 C23.889503,2.18409524 23.8917083,2.19958929 23.8909167,2.21508333 C23.8720298,2.20547024 23.8512202,2.19902381 23.8306935,2.19597024 C23.8214196,2.19455655 23.8119762,2.19563095 23.8032113,2.19902381 C23.7925804,2.20315179 23.7657202,2.20501786 23.7420833,2.20665774 C23.6659137,2.21191667 23.5507827,2.21983333 23.4856399,2.3166994 C23.4471875,2.37386905 23.4344077,2.44986905 23.4505238,2.52519048 C23.4605893,2.57218155 23.485753,2.63359226 23.5431488,2.69353274 C23.5488036,2.70472917 23.5577946,2.71287202 23.5684821,2.71784821 C23.5881607,2.73532143 23.6101012,2.75256845 23.6362827,2.76896726 C23.7637411,2.84864286 23.8572708,2.92221131 23.9069762,3.10254167 C23.907372,3.10893155 23.9090119,3.11498214 23.9116131,3.12080655 C23.9319702,3.20223512 23.944128,3.30407738 23.9468423,3.436625 C23.9474643,3.46608631 23.9715536,3.48955357 24.0007887,3.48955357 L24.0019762,3.48955357 C24.0317768,3.48893155 24.0554702,3.46422024 24.0549048,3.43441964 C24.0533214,3.36017262 24.0484583,3.29497321 24.0411637,3.23588095 C24.4435,3.56453571 24.6810565,3.72784524 24.8002024,3.80955655 C24.816997,3.82109226 24.8329435,3.83200595 24.8468542,3.84178869 C24.7256161,3.85281548 24.5336369,3.74215179 24.383503,3.6276994 C24.3341369,3.58313988 24.2874851,3.54632738 24.2622083,3.5269881 C24.23925,3.50940179 24.2065089,3.51302083 24.1879613,3.53524405 C24.1694137,3.55741071 24.171619,3.59026488 24.1929375,3.60977381 C24.206622,3.62227083 24.2501637,3.66123214 24.3113482,3.7085625 C24.3820893,3.77285714 24.4367143,3.83353274 24.4538482,3.86847917 C24.3697619,3.85077976 24.1391042,3.71359524 23.9515357,3.57969048 C23.9284077,3.56317857 23.8965714,3.56741964 23.8784762,3.58924702 C23.8604375,3.61113095 23.8623601,3.64330655 23.8828869,3.66281548 C24.012381,3.78575 24.0921131,3.89805357 24.1428363,4.13872024 L24.1428363,4.13872024 C24.1717321,4.27601786 24.2277143,4.40630357 24.275497,4.5007381 C24.1495655,4.41478571 24.0683631,4.28302976 24.0672321,4.28122024 L24.0672321,4.28122024 Z M25.2991786,4.1314256 C25.0132738,4.16897321 24.6897649,3.95103869 24.6865417,3.94883333 C24.6634702,3.9331131 24.6321994,3.93746726 24.6145565,3.9590119 C24.5966875,3.9805 24.5982143,4.01194048 24.6179494,4.03161905 C24.7115923,4.1252619 24.8071012,4.18887798 24.8767679,4.23524702 C24.8868899,4.24197619 24.897747,4.24921429 24.9081518,4.25633929 C24.8042173,4.2511369 24.6236042,4.13397024 24.5240238,4.05242857 C24.5021964,4.03450298 24.4701339,4.03653869 24.4505685,4.05712202 C24.4311161,4.07764881 24.4308333,4.10976786 24.4498899,4.13063393 C24.4902083,4.17479762 24.5284345,4.22416369 24.551619,4.26024107 C24.4726786,4.23140179 24.3395089,4.15562798 24.2433214,4.09410417 C24.2210982,3.99554167 24.1937292,3.91535714 24.1600268,3.8473869 C24.4738095,4.03427679 24.526625,3.97122619 24.5464732,3.94747619 C24.5580089,3.93362202 24.5709583,3.90981548 24.567,3.87475595 L24.567,3.87436012 C24.6950804,3.93916369 24.832378,3.97738988 24.9377262,3.9281369 C24.948753,3.92293452 24.9646429,3.91473512 24.9773661,3.90167262 C25.1717768,4.0103006 25.273506,4.09161607 25.3044375,4.13063393 C25.3027411,4.13086012 25.3009881,4.13114286 25.2991786,4.1314256 L25.2991786,4.1314256 Z M25.2257798,3.92615774 C25.166122,3.88566964 25.0897262,3.8390744 24.9892976,3.7845625 C24.9872619,3.78343155 24.9849435,3.783375 24.9827946,3.78258333 C25.000494,3.7832619 25.0185893,3.78377083 25.0371935,3.78377083 C25.0891042,3.78377083 25.1437857,3.78020833 25.1980714,3.77229167 C25.2021994,3.7749494 25.2061577,3.77788988 25.2111339,3.77947321 C25.3784583,3.8320625 25.4791696,3.87204167 25.5114018,3.89878869 C25.468369,3.9174494 25.344869,3.92960714 25.2257798,3.92615774 L25.2257798,3.92615774 Z M25.5440863,3.7915744 C25.5440863,3.7915744 25.5434643,3.79174405 25.543125,3.79174405 C25.4996964,3.76646726 25.4379464,3.74164286 25.3593452,3.71455655 C25.3621726,3.70890179 25.3643214,3.70285119 25.3649435,3.69629167 C25.366244,3.68294643 25.3625119,3.66988393 25.3550476,3.65942262 C25.4468244,3.6813631 25.528875,3.69001488 25.5928869,3.67864881 C25.6734673,3.66428571 25.7464702,3.62458929 25.7993423,3.58890774 L25.7993988,3.58890774 C25.853628,3.58890774 26.0076071,3.58698512 26.2049018,3.57075595 C26.0624583,3.6588006 25.8195298,3.77958631 25.5440863,3.7915744 L25.5440863,3.7915744 Z M27.722753,2.86860417 C27.6492411,2.96105952 27.4823125,3.11238095 27.1791607,3.24866071 C26.7651756,3.43481548 26.1537827,3.47191071 25.8989792,3.47909226 C25.8985833,3.47502083 25.898131,3.47100595 25.8967173,3.46704762 C25.8899881,3.4471994 25.8723452,3.4330625 25.8514792,3.4306875 C25.8466726,3.43017857 25.5731518,3.39834226 25.2689256,3.30662202 C25.4512917,3.32386905 25.6234226,3.33240774 25.7844702,3.33240774 C26.2392827,3.33240774 26.6108006,3.26901786 26.9129345,3.17401786 C26.9145179,3.17379167 26.9160446,3.17413095 26.917628,3.17379167 C27.0841042,3.13019345 27.4808423,2.9676756 27.6939137,2.88042262 C27.7040357,2.87618155 27.7135923,2.87227976 27.722753,2.86860417 L27.722753,2.86860417 Z M27.4346429,2.81697619 C27.0831994,3.03451488 26.4703363,3.2669256 25.5008839,3.21501488 C25.5197143,3.20591071 25.5320982,3.18702381 25.5316458,3.16570536 C25.5311935,3.14291667 25.5165476,3.12289881 25.4949464,3.11560417 C25.4515744,3.10095833 25.4000595,3.0815625 25.3499583,3.06058333 C25.4983393,3.0649375 25.691506,3.05108333 25.8751161,2.98034226 C25.8960952,2.97225595 25.9098929,2.9520119 25.9096667,2.92950595 C25.909497,2.907 25.8953601,2.8869256 25.8742113,2.87923512 L25.8036399,2.85339286 C25.9827262,2.84592857 26.2023006,2.82246131 26.3554315,2.75799702 C26.3795774,2.74781845 26.3928661,2.7218631 26.3871548,2.69636012 C26.3868155,2.69505952 26.3860238,2.69398512 26.3856845,2.69268452 C26.7091935,2.61165179 27.3048661,2.42464881 27.9197649,2.03938988 C27.7873304,2.25947321 27.4026369,2.66870833 26.3136429,2.92605655 C26.2854256,2.93272917 26.2674435,2.9604375 26.2730417,2.98888095 C26.2785833,3.01738095 26.3056131,3.03604167 26.3341696,3.03197024 C26.342256,3.03072619 27.0825774,2.91446429 27.8469315,2.47695536 C27.7563423,2.57766667 27.6225506,2.70065774 27.4346429,2.81697619 L27.4346429,2.81697619 Z" fill="#464655">
        </path>
      </g>
  </symbol>
  <symbol id="flag-bangladesh" viewBox="0 0 29 19" xmlns="http://www.w3.org/2000/svg" xmlns:xlink="http://www.w3.org/1999/xlink">
      <g>
          <path d="M28.4531786,18.9843929 L0.499202381,18.9843929 C0.223532738,18.9843929 0,18.7608601 0,18.4851905 L0,0.514809524 C0,0.239139881 0.223532738,0.0156071429 0.499202381,0.0156071429 L28.4532351,0.0156071429 C28.7289048,0.0156071429 28.9524375,0.239139881 28.9524375,0.514809524 L28.9524375,18.4851905 C28.952381,18.7609167 28.7288482,18.9843929 28.4531786,18.9843929 L28.4531786,18.9843929 Z" fill="#73AF00"></path>
          <circle fill="#FF4B55" cx="12.479494" cy="9.5" r="6.48940476"></circle>
      </g>
  </symbol>
  <!-- flag-south-sudan  viewBox="-1 0 30 19"-->
  <symbol id="flag-south-sudan" viewBox="0 0 29 19" xmlns="http://www.w3.org/2000/symbol">
    <g>
      <path d="M28.952381,6.33859226 L-1.42108547e-14,6.33859226 L-1.42108547e-14,0.514809524 C-1.42108547e-14,0.239139881 0.223532738,0.0156071429 0.499202381,0.0156071429 L28.4532351,0.0156071429 C28.7289048,0.0156071429 28.9524375,0.239139881 28.9524375,0.514809524 L28.952381,6.33859226 L28.952381,6.33859226 L28.952381,6.33859226 Z" fill="#464655"></path>
      <path d="M28.4531786,18.9843929 L0.499202381,18.9843929 C0.223532738,18.9843929 -1.42108547e-14,18.7608601 -1.42108547e-14,18.4851905 L-1.42108547e-14,12.6614643 L28.952381,12.6614643 L28.952381,18.4851905 C28.952381,18.7609167 28.7288482,18.9843929 28.4531786,18.9843929 L28.4531786,18.9843929 Z" fill="#73AF00"></path>
      <rect fill="#FF4B55" x="-1.42108547e-14" y="6.33842262" width="28.952381" height="6.32258929"></rect>
      <path d="M5.39452976,8.20867857 L5.69123512,8.85224702 L6.3793631,8.68294345 C6.42233929,8.6724256 6.45790774,8.71698512 6.43805952,8.75656845 L6.11992262,9.38978869 L6.68132738,9.82226488 C6.7163869,9.84929464 6.70366369,9.9049375 6.66034821,9.91404167 L5.96690476,10.0601042 L5.97883631,10.7687024 C5.97957143,10.8129226 5.9281131,10.8376905 5.89401488,10.8095863 L5.34748214,10.358506 L4.8009494,10.8095863 C4.76679464,10.837747 4.71539286,10.8129792 4.71612798,10.7687024 L4.72805952,10.0601042 L4.03461607,9.91404167 C3.9913006,9.9049375 3.97863393,9.84929464 4.0136369,9.82226488 L4.57504167,9.38978869 L4.25690476,8.75656845 C4.23705655,8.71698512 4.272625,8.67236905 4.31560119,8.68294345 L5.00372917,8.85224702 L5.30043452,8.20867857 C5.3189256,8.16852976 5.37609524,8.16852976 5.39452976,8.20867857 L5.39452976,8.20867857 Z" fill="#F5F5F5"></path>
      <rect fill="#F5F5F5" x="-2.13162821e-14" y="6.00592262" width="28.952381" height="0.848779762"></rect>
      <rect fill="#F5F5F5" x="-2.13162821e-14" y="12.1458631" width="28.952381" height="0.848779762"></rect>
      <path d="M0.1626875,18.8493006 L13.1869048,9.70430655 C13.3285,9.60489583 13.3285,9.39521726 13.1869048,9.29580655 L0.1626875,0.150755952 C0.0639553571,0.24202381 -1.42108547e-14,0.369764881 -1.42108547e-14,0.514809524 L-1.42108547e-14,18.4851905 C-1.42108547e-14,18.6302351 0.0639553571,18.7580893 0.1626875,18.8493006 L0.1626875,18.8493006 Z" fill="#41479B"></path>
      <path d="M4.1596994,7.17289583 L5.28109524,8.32064286 L6.73007143,7.63121429 C6.91763988,7.5419256 7.11091964,7.74283929 7.01450595,7.92684524 L6.26949107,9.348 L7.37290476,10.512994 C7.5158006,10.6638065 7.38444048,10.9097321 7.179625,10.8748423 L5.59781845,10.6053929 L4.83080655,12.0148423 C4.73150893,12.1973214 4.45702679,12.1483512 4.42694345,11.9428571 L4.19430655,10.3551696 L2.61685417,10.0612917 C2.41260417,10.0232351 2.37437798,9.7471131 2.56058929,9.65494048 L3.99870833,8.94311905 L3.79072619,7.35198214 C3.76375298,7.14597917 4.01448512,7.02434524 4.1596994,7.17289583 L4.1596994,7.17289583 Z" fill="#FFE15A"></path>
    </g>
  </symbol>
  <symbol id="flag-nepal" viewBox="0 0 29 19" xmlns="http://www.w3.org/2000/symbol">
    <g>
      <path d="M28.4531786,18.9844494 L0.499202381,18.9844494 C0.223532738,18.9844494 0,18.7609167 0,18.485247 L0,0.514809524 C0,0.239139881 0.223532738,0.0156071429 0.499202381,0.0156071429 L28.4532351,0.0156071429 C28.7289048,0.0156071429 28.9524375,0.239139881 28.9524375,0.514809524 L28.9524375,18.485247 C28.952381,18.7609732 28.7288482,18.9844494 28.4531786,18.9844494 L28.4531786,18.9844494 Z" fill="#F5F5F5"></path>
      <path d="M0.648940476,1.29363988 L10.9908214,8.85117262 L4.47540476,8.85117262 L3.02201786,8.85117262 L3.99214881,9.9333244 L11.525253,18.3355655 L0.648940476,18.3355655 L0.648940476,1.29363988 L0.648940476,1.29363988 Z M0.174223214,0.143008929 C0.0694404762,0.234559524 0,0.364845238 0,0.514809524 L0,18.485247 C0,18.7609167 0.223532738,18.9844494 0.499202381,18.9844494 L12.9786964,18.9844494 L4.47540476,9.50005655 L12.9786964,9.50005655 L0.174223214,0.143008929 L0.174223214,0.143008929 L0.174223214,0.143008929 Z" fill="#41479B"></path>
      <polyline fill="#FF4B55" points="0.648940476 1.29363988 10.9908214 8.85111607 4.47540476 8.85111607 3.02201786 8.85111607 3.9922619 9.93321131 11.5253095 18.3355089 0.648940476 18.3355089 0.648940476 1.29363988"></polyline>
      <path d="M3.8081994,11.7844673 L4.20776488,12.6091012 L4.966125,12.094744 C4.99954464,12.0720119 5.0445,12.0979673 5.04155952,12.1382857 L4.97534226,13.0522083 L5.88926488,12.9859911 C5.92958333,12.9830506 5.95553869,13.028006 5.93280655,13.0614256 L5.4184494,13.8197857 L6.24308333,14.2193512 C6.27944345,14.236994 6.27944345,14.2887917 6.24308333,14.3064345 L5.4184494,14.706 L5.93280655,15.4643601 C5.95553869,15.4977798 5.92958333,15.5427351 5.88926488,15.5397946 L4.97534226,15.4735774 L5.04155952,16.3875 C5.0445,16.4278185 4.99954464,16.4537738 4.966125,16.4310417 L4.20776488,15.9166845 L3.8081994,16.7413185 C3.79055655,16.7776786 3.73875893,16.7776786 3.72111607,16.7413185 L3.3215506,15.9166845 L2.56319048,16.4310417 C2.52977083,16.4537738 2.48481548,16.4278185 2.48775595,16.3875 L2.55397321,15.4735774 L1.6400506,15.5397946 C1.59973214,15.5427351 1.57377679,15.4977798 1.59650893,15.4643601 L2.11086607,14.706 L1.2860625,14.3066042 C1.24970238,14.2889613 1.24970238,14.2371637 1.2860625,14.2195208 L2.11069643,13.8199554 L1.59633929,13.0615952 C1.57360714,13.0281756 1.5995625,12.9832202 1.63988095,12.9861607 L2.55380357,13.052378 L2.48758631,12.1384554 C2.48464583,12.0981369 2.52960119,12.0721815 2.56302083,12.0949137 L3.32138095,12.6092708 L3.72094643,11.7846369 C3.73870238,11.7481071 3.79055655,11.7481071 3.8081994,11.7844673 L3.8081994,11.7844673 Z" fill="#F5F5F5"></path>
      <path d="M4.84579167,7.01541071 L4.49887202,6.77841964 L4.80428571,6.45830357 L4.36903869,6.37885417 L4.51787202,5.96226786 L4.08794048,6.06671131 L4.05440774,5.62563988 L3.70415179,5.89588095 L3.49419048,5.50660714 L3.28417262,5.89599405 L2.93391667,5.62575298 L2.90038393,6.0668244 L2.47045238,5.96238095 L2.61928571,6.37896726 L2.18403869,6.45841667 L2.48945238,6.77853274 L2.14253274,7.01552381 C1.70479762,6.81116071 1.31993452,6.51253274 1.01706548,6.14316369 C1.22052381,7.32845833 2.25065179,8.23141071 3.49407738,8.23141071 C4.73750298,8.23141071 5.7675744,7.32845833 5.97108929,6.14316369 C5.66838988,6.51247619 5.28347024,6.81104762 4.84579167,7.01541071 L4.84579167,7.01541071 Z" fill="#F5F5F5"></path>
    </g>
  </symbol>
  <symbol id="flag-greenland" viewBox="0 0 29 19" xmlns="http://www.w3.org/2000/symbol">
    <g>
      <path d="M28.952381,9.5 L0,9.5 L0,0.514752976 C0,0.239083333 0.223532738,0.0155505952 0.499202381,0.0155505952 L28.4532351,0.0155505952 C28.7289048,0.0155505952 28.9524375,0.239083333 28.9524375,0.514752976 L28.952381,9.5 L28.952381,9.5 L28.952381,9.5 Z" fill="#F5F5F5"></path>
      <path d="M0,9.5 L28.952381,9.5 L28.952381,18.485247 C28.952381,18.7609167 28.7288482,18.9844494 28.4531786,18.9844494 L0.499202381,18.9844494 C0.223532738,18.9844494 0,18.7609167 0,18.485247 L0,9.5 L0,9.5 Z" fill="#FF4B55"></path>
      <path d="M9.98359524,3.01065179 C6.39960714,3.01065179 3.49424702,5.91606845 3.49424702,9.5 L16.4728869,9.5 C16.4728869,5.91606845 13.5675833,3.01065179 9.98359524,3.01065179 L9.98359524,3.01065179 Z" fill="#FF4B55"></path>
      <path d="M9.98359524,15.9893482 C13.5675833,15.9893482 16.4729435,13.0839315 16.4729435,9.5 L3.49424702,9.5 C3.49424702,13.0839881 6.39966369,15.9893482 9.98359524,15.9893482 L9.98359524,15.9893482 Z" fill="#F5F5F5"></path>
    </g>
  </symbol>
  <symbol id="flag-bw" viewBox="0 0 29 19" xmlns="http://www.w3.org/2000/symbol">
    <title>flag-botswana</title>
    <g>
      <path d="M28.4531786,18.9843929 L0.499202381,18.9843929 C0.223532738,18.9843929 0,18.7608601 0,18.4851905 L0,0.514809524 C0,0.239139881 0.223532738,0.0156071429 0.499202381,0.0156071429 L28.4532351,0.0156071429 C28.7289048,0.0156071429 28.9524375,0.239139881 28.9524375,0.514809524 L28.9524375,18.4851905 C28.952381,18.7609167 28.7288482,18.9843929 28.4531786,18.9843929 L28.4531786,18.9843929 Z" fill="#82AFFF"></path>
      <rect fill="#464655" x="0" y="8.00261905" width="28.952381" height="2.99504464"></rect>
      <rect fill="#F5F5F5" x="0" y="7.0039881" width="28.952381" height="0.998348214"></rect>
      <rect fill="#F5F5F5" x="0" y="10.997381" width="28.952381" height="0.998348214"></rect>
    </g>
  </symbol>
  <symbol id="flag-py" viewBox="0 0 29 19" xmlns="http://www.w3.org/2000/symbol">
    <title>flag-paraguay</title>
    <g>
      <path d="M28.952381,6.33859226 L0,6.33859226 L0,0.514809524 C0,0.239139881 0.223532738,0.0156071429 0.499202381,0.0156071429 L28.4532351,0.0156071429 C28.7289048,0.0156071429 28.9524375,0.239139881 28.9524375,0.514809524 L28.952381,6.33859226 L28.952381,6.33859226 L28.952381,6.33859226 Z" fill="#FF4B55"></path>
      <path d="M28.4531786,18.9844494 L0.499202381,18.9844494 C0.223532738,18.9844494 0,18.7609167 0,18.485247 L0,12.6615208 L28.952381,12.6615208 L28.952381,18.485247 C28.952381,18.7609732 28.7288482,18.9844494 28.4531786,18.9844494 L28.4531786,18.9844494 Z" fill="#41479B"></path>
      <rect fill="#F5F5F5" x="0" y="6.33847917" width="28.952381" height="6.32258929"></rect>
      <path d="M14.4761905,7.00415774 C13.0977857,7.00415774 11.9802917,8.12159524 11.9802917,9.50005655 C11.9802917,10.8785179 13.0977857,11.9959554 14.4761905,11.9959554 C15.8545952,11.9959554 16.9720893,10.8785179 16.9720893,9.50005655 C16.9720893,8.12159524 15.8545952,7.00415774 14.4761905,7.00415774 L14.4761905,7.00415774 Z M14.4761905,11.3824137 C13.4366756,11.3824137 12.5938333,10.5396845 12.5938333,9.50005655 C12.5938333,8.46042857 13.436619,7.6176994 14.4761905,7.6176994 C15.5157619,7.6176994 16.3585476,8.46048512 16.3585476,9.50005655 C16.3585476,10.539628 15.5157054,11.3824137 14.4761905,11.3824137 L14.4761905,11.3824137 Z" fill="#FF4B55"></path>
      <ellipse fill="#41479B" cx="14.4761905" cy="9.50005655" rx="0.865744048" ry="0.865744048"></ellipse>
      <path d="M14.532625,8.84427381 L14.672128,9.26272619 L15.1131429,9.2661756 C15.170256,9.26662798 15.1939494,9.33951786 15.1479762,9.37344643 L14.7931964,9.63543155 L14.926253,10.0559196 C14.9435,10.110375 14.8815238,10.1553869 14.8350417,10.1221935 L14.4761905,9.86575 L14.1173393,10.1221935 C14.0708571,10.1553869 14.008881,10.1103185 14.026128,10.0559196 L14.1591845,9.63543155 L13.8044048,9.37344643 C13.7584881,9.33951786 13.782125,9.26662798 13.8392381,9.2661756 L14.280253,9.26272619 L14.419756,8.84427381 C14.4378512,8.79010119 14.5145298,8.79010119 14.532625,8.84427381 L14.532625,8.84427381 Z" fill="#FFE15A"></path>
      <path d="M16.1138095,9.5201875 C16.1138095,9.5201875 16.1632887,9.29139583 15.9198512,9.56593452 C15.9198512,9.56593452 15.9234137,9.48778571 15.9165149,9.42337798 C15.9700655,9.36541667 16.0364524,9.2386369 16.0208452,8.96805655 C16.0208452,8.96805655 15.9826756,8.73711607 15.8573661,9.0818869 C15.8573661,9.0818869 15.8231548,8.98015774 15.7867946,8.92383631 C15.8169911,8.86118155 15.8403452,8.747125 15.7679077,8.531 C15.7679077,8.531 15.683256,8.34608929 15.6569048,8.66377381 C15.6569048,8.66377381 15.5874077,8.55983929 15.5422262,8.53427976 C15.5509345,8.48304762 15.5440923,8.39505952 15.4418542,8.25261607 C15.4418542,8.25261607 15.3398423,8.13838988 15.3913571,8.37283631 C15.3913571,8.37283631 15.297997,8.29723214 15.2681399,8.30611012 C15.2526458,8.2613244 15.2078036,8.18560714 15.0572173,8.08597024 C15.0572173,8.08597024 14.9267619,8.0145506 15.0764435,8.2009881 C15.0764435,8.2009881 14.944122,8.1485119 14.9457054,8.17859524 C14.9472887,8.20867857 15.011244,8.26415179 15.0637768,8.28891964 C15.0637768,8.28891964 14.8697054,8.3090506 14.949381,8.35230952 C14.949381,8.35230952 15.1462232,8.42022321 15.2644643,8.35485417 C15.2739643,8.38929167 15.293247,8.42791369 15.3218601,8.45567857 C15.3218601,8.45567857 15.0909196,8.41083631 15.1534613,8.48016369 C15.1534613,8.48016369 15.3266667,8.60745238 15.4978363,8.58794345 C15.4970446,8.63510417 15.5112946,8.69600595 15.5363452,8.74163988 C15.5363452,8.74163988 15.2609583,8.59444643 15.3131518,8.70680655 C15.3131518,8.70680655 15.4778185,8.92705952 15.6968839,8.97484226 C15.6878929,9.0238125 15.6880625,9.08301786 15.6999375,9.13204464 C15.6999375,9.13204464 15.4385744,8.88521429 15.462494,9.02584821 C15.462494,9.02584821 15.571744,9.31548512 15.7931845,9.43853274 C15.7751458,9.47528869 15.7603869,9.51639881 15.7549583,9.55479464 C15.7549583,9.55479464 15.6027321,9.22902381 15.5732708,9.36863988 C15.5732708,9.36863988 15.5682381,9.69401488 15.7419524,9.88859524 C15.7049702,9.91935714 15.6687232,9.96238988 15.6465,10.004631 C15.6465,10.004631 15.6131935,9.64674107 15.5383244,9.76814881 C15.5383244,9.76814881 15.4348423,10.0393512 15.5049048,10.2730625 C15.4585923,10.286747 15.4081518,10.3120238 15.3708304,10.3422768 C15.3708304,10.3422768 15.4812679,10.0001071 15.3646101,10.0822143 C15.3646101,10.0822143 15.1568542,10.3069911 15.1409643,10.559872 C15.0858869,10.5587411 15.0113006,10.5785893 14.9572411,10.610878 C14.9572411,10.610878 15.1152917,10.2880476 14.9880595,10.352625 C14.9880595,10.352625 14.7614167,10.5377619 14.7028899,10.7780327 C14.6492827,10.808625 14.5582411,10.8605923 14.467256,10.9121637 C14.4143274,10.8814583 14.3629256,10.8516012 14.3189881,10.8259286 L14.3204583,10.8235536 L13.805253,10.3916429 L13.8154881,10.5328988 L13.5567827,10.0702262 L13.5248333,10.2276548 L13.440125,9.71618155 L13.3649732,9.79167262 L13.3940387,9.31452381 L13.2960982,9.36733929 L13.473997,9.01244643 L13.3904196,9.03602679 L13.6102202,8.82533036 L13.4940149,8.83522619 L13.7718899,8.70906845 L13.6703304,8.69346131 L13.9415893,8.55610714 L13.8247054,8.55045238 L14.176375,8.4287619 L14.1119673,8.37244048 L14.4163631,8.28264286 L14.051631,8.25482143 L14.1555089,8.12696726 L13.8772381,8.26935417 L13.9171607,8.07686607 L13.6737232,8.32754167 L13.7160208,8.15201786 L13.4881905,8.37871726 L13.5028929,8.20760417 L13.2776637,8.5890744 L13.2485982,8.41835714 L13.0614256,8.84664881 L13.0099107,8.66004167 L12.9263333,9.19119345 L12.8566101,9.11213988 L12.9482738,9.62446131 L12.8320119,9.53726488 L13.0451399,9.9974494 C13.0451399,9.9974494 12.8901429,9.92964881 12.870747,9.92964881 C12.8513512,9.92964881 13.2413036,10.3257083 13.2413036,10.3257083 L13.0378452,10.3039375 L13.4309643,10.5803423 L13.2849018,10.6164196 L13.6119167,10.7435387 L13.5319583,10.8054018 L14.2089464,10.8538065 C14.2089464,10.8538065 14.2742024,10.9081488 14.3629821,10.9710863 C14.3161042,10.9975506 14.274881,11.0205655 14.249378,11.0345327 C14.2236488,11.0485565 14.1934524,11.0499702 14.1663661,11.0386607 C14.1020714,11.0116875 14.0091071,10.9736875 13.9642649,10.9557619 C13.9642649,10.9557619 13.968619,11.1481935 14.1689673,11.153 C14.251244,11.1548661 14.3634345,11.102503 14.4677649,11.0405833 C14.5745833,11.1071964 14.6924851,11.1659494 14.7776458,11.1639137 C14.9736399,11.1591071 14.9779375,10.9666756 14.9779375,10.9666756 C14.9340565,10.9846577 14.8430149,11.0226577 14.7801905,11.0495744 C14.7536696,11.0608839 14.7241518,11.0594702 14.6989881,11.0454464 C14.6712232,11.0298958 14.6255327,11.0038274 14.5731696,10.9735744 C14.6266637,10.9373274 14.671506,10.9044167 14.703003,10.8801577 C14.7523125,10.9188929 14.8934554,10.9869762 15.208878,10.8685655 C15.208878,10.8685655 15.4181042,10.7635 15.051619,10.746253 C15.051619,10.746253 15.1196458,10.6963214 15.1655625,10.6489345 C15.2256726,10.6798661 15.3742232,10.7165089 15.656622,10.5614554 C15.656622,10.5614554 15.8487708,10.4276071 15.4835863,10.4627798 C15.4835863,10.4627798 15.5323304,10.4152798 15.5706696,10.3669881 C15.6336637,10.3740565 15.7892262,10.3572054 15.9955119,10.0933542 C15.9955119,10.0933542 16.1193512,9.89470238 15.7975952,10.0709048 C15.7975952,10.0709048 15.8392143,9.97172024 15.848997,9.90538988 C15.9203601,9.87100893 16.0287619,9.77759226 16.1138095,9.5201875 L16.1138095,9.5201875 Z" fill="#64C86E"></path>
    </g>
  </symbol>
  <symbol id="flag-cd" viewBox="0 0 29 19" xmlns="http://www.w3.org/2000/svg">
    <title>flag-democratic-republic-of-congo</title>
      <g>
        <path d="M28.4531786,18.9844494 L0.499202381,18.9844494 C0.223532738,18.9844494 0,18.7609167 0,18.485247 L0,0.514809524 C0,0.239139881 0.223532738,0.0156071429 0.499202381,0.0156071429 L28.4532351,0.0156071429 C28.7289048,0.0156071429 28.9524375,0.239139881 28.9524375,0.514809524 L28.9524375,18.485247 C28.952381,18.7609732 28.7288482,18.9844494 28.4531786,18.9844494 L28.4531786,18.9844494 Z" fill="#82AFFF"></path>
        <path d="M28.4531786,0.0156636905 L27.0222411,0.0156636905 L0,13.9926518 L0,14.991 L28.7469435,0.121916667 C28.6635923,0.0595446429 28.5653125,0.0156636905 28.4531786,0.0156636905 L28.4531786,0.0156636905 Z" fill="#FFE15A"></path>
        <path d="M0.499202381,18.9844494 L1.93013988,18.9844494 L28.952381,5.00746131 L28.952381,4.0091131 L0.2054375,18.8781964 C0.28878869,18.9405685 0.387068452,18.9844494 0.499202381,18.9844494 L0.499202381,18.9844494 Z" fill="#FFE15A"></path>
        <path d="M28.7469435,0.121916667 L0,14.991 L0,18.485247 C0,18.6488393 0.083860119,18.7871548 0.2054375,18.8781399 L28.952381,4.0091131 L28.952381,0.514809524 C28.952381,0.351217262 28.8685208,0.212958333 28.7469435,0.121916667 L28.7469435,0.121916667 Z" fill="#FF4B55"></path>
        <path d="M5.23738393,1.97797917 L5.95655655,4.13442262 L8.22971429,4.15200893 C8.35683333,4.15302679 8.40953571,4.31520536 8.30729762,4.39075298 L6.47860417,5.74116667 L7.1643006,7.90852381 C7.20263988,8.02970536 7.06466369,8.12996429 6.9612381,8.05605655 L5.11184821,6.73414286 L3.26245833,8.05605655 C3.15908929,8.13002083 3.02105655,8.02970536 3.05939583,7.90852381 L3.74509226,5.74116667 L1.91639881,4.39075298 C1.81410417,4.3152619 1.8668631,4.15302679 1.99398214,4.15200893 L4.26713988,4.13442262 L4.9863125,1.97797917 C5.02663095,1.85741964 5.19712202,1.85741964 5.23738393,1.97797917 L5.23738393,1.97797917 Z" fill="#FFE15A"></path>
      </g>
  </symbol>
  <symbol id="flag-sn" viewBox="0 0 29 19" xmlns="http://www.w3.org/2000/svg">
      <title>flag-senegal</title>
      <g>
        <path d="M9.6508125,18.9842232 L0.499202381,18.9842232 C0.223532738,18.9842232 0,18.7606905 0,18.4850208 L0,0.514583333 C0,0.23891369 0.223532738,0.0153809524 0.499202381,0.0153809524 L9.6508125,0.0153809524 L9.6508125,18.9842232 L9.6508125,18.9842232 Z" fill="#73AF00"></path>
        <rect fill="#FFE15A" x="9.65098214" y="0.0156636905" width="9.65098214" height="18.9688988"></rect>
        <path d="M28.4531786,18.9842232 L19.3015685,18.9842232 L19.3015685,0.0154375 L28.4531786,0.0154375 C28.7288482,0.0154375 28.952381,0.238970238 28.952381,0.514639881 L28.952381,18.4850774 C28.952381,18.7608036 28.7288482,18.9842232 28.4531786,18.9842232 L28.4531786,18.9842232 Z" fill="#FF4B55"></path>
        <path d="M14.5915476,6.66000893 L15.2527589,8.64268155 L17.3427024,8.65891071 C17.4595863,8.65987202 17.5080476,8.8089881 17.4140089,8.87837202 L15.7327351,10.119875 L16.363128,12.1125565 C16.3983571,12.2240119 16.2715208,12.3161845 16.1764077,12.2482143 L14.4761905,11.0328363 L12.7758601,12.2481577 C12.680747,12.316128 12.5539107,12.2239554 12.5891399,12.1125 L13.2195327,10.1198185 L11.5382589,8.87831548 C11.4442202,8.808875 11.4926815,8.65975893 11.6095655,8.65885417 L13.6995089,8.642625 L14.3607202,6.65995238 C14.3977589,6.54911905 14.554622,6.54911905 14.5915476,6.66000893 L14.5915476,6.66000893 Z" fill="#73AF00"></path>
      </g>
  </symbol>




  <symbol width="29px" height="19px" viewBox="0 0 29 19" version="1.1" xmlns="http://www.w3.org/2000/symbol" xmlns:xlink="http://www.w3.org/1999/xlink">
      <g id="011-italy">
          <path d="M9.6508125,18.9842232 L0.499202381,18.9842232 C0.223532738,18.9842232 0,18.7606905 0,18.4850208 L0,0.514583333 C0,0.23891369 0.223532738,0.0153809524 0.499202381,0.0153809524 L9.6508125,0.0153809524 L9.6508125,18.9842232 L9.6508125,18.9842232 Z" fill="#73AF00"></path>
          <rect fill="#F5F5F5" x="9.65098214" y="0.0156636905" width="9.65098214" height="18.9688988"></rect>
          <path d="M28.4531786,18.9842232 L19.3015685,18.9842232 L19.3015685,0.0154375 L28.4531786,0.0154375 C28.7288482,0.0154375 28.952381,0.238970238 28.952381,0.514639881 L28.952381,18.4850774 C28.952381,18.7608036 28.7288482,18.9842232 28.4531786,18.9842232 L28.4531786,18.9842232 Z" fill="#FF4B55"></path>
      </g>
  </symbol>

</svg>
