<?xml version="1.0" encoding="UTF-8" standalone="no"?>
<svg width="17px" height="17px" viewBox="0 0 17 17" version="1.1" xmlns="http://www.w3.org/2000/svg" xmlns:xlink="http://www.w3.org/1999/xlink">
    <!-- Generator: Sketch 3.8.3 (29802) - http://www.bohemiancoding.com/sketch -->
    <title>searchIcon</title>
    <desc>Created with Sketch.</desc>
    <defs></defs>
    <g id="Page-1" stroke="none" stroke-width="1" fill="none" fill-rule="evenodd">
        <g id="HomeBaazup" transform="translate(-303.000000, -308.000000)" fill="#000000">
            <g id="SearchBar" transform="translate(37.000000, 287.000000)">
                <g id="searchIcon" transform="translate(266.000000, 21.000000)">
                    <path d="M16.538494,14.5349323 L12.8554542,10.8519602 C12.8358805,10.8323865 12.8129203,10.8187052 12.7924661,10.8004861 C13.5171673,9.7011753 13.9401355,8.38526693 13.9401355,6.97013546 C13.9401355,3.12061753 10.8195179,0 6.97006773,0 C3.12061753,0 0,3.12061753 0,6.97006773 C0,10.8194502 3.1205498,13.9401355 6.97,13.9401355 C8.3851992,13.9401355 9.70103984,13.5171673 10.8003506,12.7924661 C10.8185697,12.8128526 10.8321833,12.8358127 10.851757,12.8553865 L14.5348645,16.538494 C15.0881434,17.0917052 15.9851474,17.0917052 16.538494,16.538494 C17.0917052,15.9852151 17.0917052,15.0882112 16.538494,14.5349323 L16.538494,14.5349323 Z M6.97006773,11.5238327 C4.45501594,11.5238327 2.41623506,9.48505179 2.41623506,6.97006773 C2.41623506,4.45501594 4.45508367,2.41623506 6.97006773,2.41623506 C9.48498406,2.41623506 11.5238327,4.45508367 11.5238327,6.97006773 C11.5238327,9.48505179 9.48498406,11.5238327 6.97006773,11.5238327 L6.97006773,11.5238327 Z" id="Shape"></path>
                </g>
            </g>
        </g>
    </g>
</svg>